<svg width="20" height="20" viewBox="0 0 20 20" fill="none" xmlns="http://www.w3.org/2000/svg">
<path d="M18.6625 1.33751C18.3343 1.00944 17.8893 0.825134 17.4252 0.825134C16.9612 0.825134 16.5162 1.00944 16.188 1.33751L9.99999 7.52551L3.81199 1.33751C3.48193 1.01873 3.03988 0.842344 2.58104 0.846331C2.12219 0.850318 1.68327 1.03436 1.35881 1.35883C1.03434 1.68329 0.850296 2.12221 0.84631 2.58106C0.842321 3.0399 1.01871 3.48196 1.33749 3.81201L7.52549 10L1.33749 16.188C1.01871 16.5181 0.842321 16.9601 0.84631 17.419C0.850296 17.8778 1.03434 18.3167 1.35881 18.6412C1.68327 18.9657 2.12219 19.1497 2.58104 19.1537C3.03988 19.1577 3.48193 18.9813 3.81199 18.6625L9.99999 12.4745L16.188 18.6625C16.518 18.9813 16.9601 19.1577 17.4189 19.1537C17.8778 19.1497 18.3167 18.9657 18.6412 18.6412C18.9656 18.3167 19.1497 17.8778 19.1537 17.419C19.1577 16.9601 18.9813 16.5181 18.6625 16.188L12.4745 10L18.6625 3.81201C18.9906 3.48384 19.1749 3.0388 19.1749 2.57476C19.1749 2.11072 18.9906 1.66568 18.6625 1.33751Z" fill="black"/>
</svg>
